<?xml version="1.0" standalone="no"?>
<!DOCTYPE svg PUBLIC "-//W3C//DTD SVG 20010904//EN"
 "http://www.w3.org/TR/2001/REC-SVG-20010904/DTD/svg10.dtd">
<svg version="1.0" xmlns="http://www.w3.org/2000/svg"
 width="400.000000pt" height="400.000000pt" viewBox="0 0 400.000000 400.000000"
 preserveAspectRatio="xMidYMid meet">

<g transform="translate(0.000000,400.000000) scale(0.100000,-0.100000)"
fill="#000000" stroke="none">
<path d="M1760 3985 c-380 -49 -730 -198 -1020 -432 -89 -72 -257 -243 -321
-328 -176 -230 -311 -517 -370 -788 -150 -685 58 -1383 558 -1867 170 -166
307 -262 518 -366 554 -271 1196 -271 1750 0 211 104 348 200 518 366 174 168
294 334 403 555 334 682 252 1489 -215 2100 -64 85 -232 256 -321 328 -418
338 -982 500 -1500 432z m417 -1518 c441 -254 802 -464 802 -467 0 -6 -1594
-925 -1621 -935 -17 -7 -18 42 -18 935 0 893 1 942 18 936 9 -4 378 -215 819
-469z"/>
</g>
</svg>
